<svg version="1.1" viewBox="0.0 0.0 960.0 960.0" fill="none" stroke="none" stroke-linecap="square" stroke-miterlimit="10" xmlns:xlink="http://www.w3.org/1999/xlink" xmlns="http://www.w3.org/2000/svg"><clipPath id="p.0"><path d="m0 0l960.0 0l0 960.0l-960.0 0l0 -960.0z" clip-rule="nonzero"/></clipPath><g clip-path="url(#p.0)"><path fill="#000000" fill-opacity="0.0" d="m0 0l960.0 0l0 960.0l-960.0 0z" fill-rule="evenodd"/><path fill="#8b6fe8" d="m0 160.0032l0 0c0 -88.36733 71.63587 -160.0032 160.0032 -160.0032l639.99365 0l0 0c42.435486 0 83.13287 16.857431 113.13934 46.863853c30.006409 30.006416 46.86383 70.70386 46.86383 113.13935l0 639.99365c0 88.36731 -71.635864 160.00317 -160.00317 160.00317l-639.99365 0c-88.36733 0 -160.0032 -71.635864 -160.0032 -160.00317z" fill-rule="evenodd"/><g filter="url(#shadowFilter-p.1)"><use xlink:href="#p.1" transform="matrix(1.0 0.0 0.0 1.0 0.0 2.0)"/></g><defs><filter id="shadowFilter-p.1" filterUnits="userSpaceOnUse"><feGaussianBlur in="SourceAlpha" stdDeviation="2.0" result="blur"/><feComponentTransfer in="blur" color-interpolation-filters="sRGB"><feFuncR type="linear" slope="0" intercept="0.0"/><feFuncG type="linear" slope="0" intercept="0.0"/><feFuncB type="linear" slope="0" intercept="0.0"/><feFuncA type="linear" slope="0.5" intercept="0"/></feComponentTransfer></filter></defs><g id="p.1"><path fill="#000000" fill-opacity="0.0" d="m0 193.94226l960.0 0l0 509.29132l-960.0 0z" fill-rule="evenodd"/><path fill="#ffffff" d="m465.49765 411.5891q4.265625 -10.234375 14.078125 -10.234375q6.390625 0 11.515625 4.265625q5.125 4.265625 5.125 10.65625q0 2.984375 -1.28125 6.40625l-70.828125 179.1875q-2.5625 5.546875 -7.46875 8.75q-4.90625 3.203125 -10.875 3.203125q-5.546875 0 -10.453125 -3.203125q-4.90625 -3.203125 -7.46875 -8.75l-58.875 -149.75l-58.453125 149.75q-2.140625 5.546875 -7.265625 8.75q-5.109375 3.203125 -11.078125 3.203125q-5.546875 0 -10.671875 -3.203125q-5.125 -3.203125 -7.671875 -8.75l-70.828125 -178.76562q-1.28125 -3.40625 -1.28125 -5.96875q0 -6.828125 5.75 -11.515625q5.765625 -4.703125 12.59375 -4.703125q10.234375 0 14.5 10.25l58.453125 157.42188l60.171875 -156.15625q2.546875 -5.53125 7.03125 -8.515625q4.484375 -3.0 9.59375 -3.0q5.546875 0 10.03125 3.0q4.484375 2.984375 6.609375 8.515625l60.171875 155.73438l58.875 -156.57812zm160.83829 203.9375q-29.0 0 -51.40625 -13.21875q-22.390625 -13.234375 -34.5625 -37.546875q-12.15625 -24.328125 -12.15625 -56.328125q0 -32.0 12.578125 -56.734375q12.59375 -24.75 35.203125 -38.40625q22.625 -13.65625 52.0625 -13.65625q16.203125 0 32.203125 4.484375q16.0 4.484375 27.953125 13.015625q7.671875 5.125 10.875 10.03125q3.203125 4.90625 3.203125 10.875q0 5.96875 -3.203125 9.8125q-3.203125 3.84375 -8.3125 3.84375q-2.984375 0 -6.40625 -1.703125q-3.40625 -1.71875 -5.765625 -3.421875q-2.34375 -1.703125 -3.1875 -2.140625q-11.09375 -7.25 -21.125 -11.515625q-10.03125 -4.265625 -24.53125 -4.265625q-31.140625 0 -48.421875 21.125q-17.28125 21.109375 -17.28125 58.65625q0 37.546875 17.28125 58.03125q17.28125 20.484375 48.421875 20.484375q14.5 0 24.953125 -4.265625q10.453125 -4.265625 21.125 -11.53125q4.6875 -2.984375 8.953125 -5.109375q4.265625 -2.140625 7.265625 -2.140625q4.6875 0 7.890625 3.84375q3.203125 3.84375 3.203125 9.8125q0 5.546875 -3.0 10.03125q-2.984375 4.46875 -11.09375 10.015625q-11.9375 8.109375 -28.796875 13.015625q-16.84375 4.90625 -33.921875 4.90625zm135.68091 -167.25q-10.234375 0 -17.0625 -6.609375q-6.828125 -6.609375 -6.828125 -17.28125q0 -10.671875 6.828125 -17.28125q6.828125 -6.609375 17.0625 -6.609375q9.8125 0 16.421875 6.609375q6.625 6.609375 6.625 17.28125q0 10.671875 -6.625 17.28125q-6.609375 6.609375 -16.421875 6.609375zm-0.84375 118.1875q10.65625 0 17.265625 8.328125q6.625 8.3125 6.625 24.953125q0 33.703125 -21.765625 56.75q-4.265625 4.6875 -9.8125 4.6875q-4.265625 0 -7.6875 -3.203125q-3.40625 -3.203125 -3.40625 -7.46875q0 -4.6875 3.421875 -8.109375q11.09375 -11.515625 14.078125 -28.578125q-9.390625 -0.859375 -15.578125 -7.046875q-6.1875 -6.1875 -6.1875 -16.0q0 -10.65625 6.609375 -17.484375q6.625 -6.828125 16.4375 -6.828125z" fill-rule="nonzero"/></g></g></svg>